<?xml version="1.0" ?><svg viewBox="0 0 512 512" xmlns="http://www.w3.org/2000/svg"><title/><g id="Solid"><path d="M496,248V232H481.88818L417.875,199.99341A23.90092,23.90092,0,0,0,424,184v-8a24.04166,24.04166,0,0,0-16-22.62891V125.842A15.98067,15.98067,0,0,0,416,112V74.6665l41.94385-13.9812A15.99988,15.99988,0,0,0,468.40649,41.626L464,24,24,168l9.79413,19.58838a16.00033,16.00033,0,0,0,19.37048,8.02344L96,181.33325V192a15.9808,15.9808,0,0,0,8,13.842V240h8a8.00917,8.00917,0,0,1,8,8v8a8,8,0,0,1-16,0v-8H88v8a23.901,23.901,0,0,0,6.12512,15.99341L30.11182,304H16v16h8v88H16v16H208V408h-8V320h8V304H193.88818l-64.0133-32.00659A23.901,23.901,0,0,0,136,256v-8a24.04166,24.04166,0,0,0-16-22.62891V205.842A15.9808,15.9808,0,0,0,128,192V174.27246l106.35468,9.26563a32.13739,32.13739,0,0,0,5.53485,4.10669L232,448H196.84442a16.00008,16.00008,0,0,0-8.87524,2.68726L175.12482,459.25A16.00053,16.00053,0,0,0,168,472.563V488H344V472.563a16.00044,16.00044,0,0,0-7.12476-13.313l-12.84448-8.56274A15.99949,15.99949,0,0,0,315.15552,448H280l-7.88953-260.35522a32.14245,32.14245,0,0,0,12.108-12.54932L368.971,90.343,384,85.33325V112a15.98067,15.98067,0,0,0,8,13.842V168h8a8.00917,8.00917,0,0,1,8,8v8a8,8,0,0,1-16,0v-8H376v8a23.90092,23.90092,0,0,0,6.125,15.99341L318.11182,232H304v16h16v88H304v16H496V336H480V248ZM130.34326,373.65723,120,363.31372V392H104V363.31372L93.65674,373.65723,82.34326,362.34277,112,332.68652l29.65674,29.65625ZM158.11182,304H65.88818L112,280.94409ZM224,160a32.06288,32.06288,0,0,0,.73517,6.802l-69.17706-5.32129,81.241-27.08032A31.94946,31.94946,0,0,0,224,160Zm62.47046-9.78442A32.00954,32.00954,0,0,0,256,128h-.00012l79.02917-26.343ZM400,323.31348l-29.65674-29.65625,11.31348-11.31446L392,292.68628V264h16v28.68628l10.34326-10.34351,11.31348,11.31446ZM353.88818,232,400,208.94409,446.11182,232Z"/></g></svg>