<svg id="圖層_1" data-name="圖層 1" xmlns="http://www.w3.org/2000/svg" viewBox="0 0 2370.86 640.71"><title>元華（全）final</title><path d="M2095.62,407.1l0,.08a72.19,72.19,0,0,0-1.91-7.4c-4.43-11.87-15.47-16.65-25.74-19.33-35-9.13-70.36-16.64-105.6-24.72-3.42-.79-6.89-1.31-11.35-2.14,4.35-8.69,7.25-16.61,11.89-23.31,9.26-13.36,19.45-26.07,29.3-39,7.89-10.34,16.71-20.1,23.48-31.12,4.39-7.14,5.47-17.77-1.66-23s-17.1-6.31-25.9-9c-.73-.22-2,.82-2.84,1.52-6.26,5.3-12.27,10.93-18.78,15.91-3.39,2.59-7.63,4.07-11.48,6l-2.18-2.11c1.49-3,2.75-6.11,4.52-8.91,4.29-6.77,2.63-15.06-3.86-18.59-7.79-4.23-11.69-.9-13.61,6.73a8.09,8.09,0,0,1-1.77,2.91c-8.83,10.62-10.26,23.93-12.83,36.67-.91,4.49,0,9.89,1.7,14.26,5.45,14.06,13.26,16.9,27.78,9.32-8.61,15.61-16.73,29.52-24,43.87-3.16,6.23-7.19,8.59-14,8.65-16.84.14-34-4.25-50.48,4-1-3.38-1.87-5.79-2.31-8.29-2.34-13.37-6.61-24.93-20.54-31.21-3.88-1.75-8.68-9.72-7.55-12.81,3.73-10.18,9.54-19.71,15.42-29,4-6.36,10-11.49,14.22-17.78,3.51-5.27,3.25-12.21-2.23-15.43a146.85,146.85,0,0,0-29.11-13c-6.42-2.07-13.75-1.32-21.68-1.91-2.84-12-15.15-15.47-27.27-21.36-.23,4.89-.67,9-.56,13.15.13,5.1.16,10.29,1.19,15.25,3.37,16.24,2,34.5,18.89,45.28,1.52,1,2.22,4.29,2.15,6.48-.27,8.83-2.25,17.79-1.25,26.43,1.39,12.15-4.18,19.89-12.27,27.4-14.45,13.4-28.51,27.22-42.8,40.79-3.92,3.73-7.58,8.09-12.2,10.67-13.17,7.34-15,20.51-13.59,32.29,1.27,11,7.21,22,13,31.92,4.75,8.15,13.07,8.92,20.91,3.62,9.09-6.16,17.72-13,28.41-20.89-6.58,13.75-12.46,25.31-17.71,37.15-8,18.09-12.18,37-7.87,56.68,1.08,4.94,3.81,11.19,7.73,13.46a61.17,61.17,0,0,0,22.51,7.11c13.27,1.68,26.85,1,40.06,2.95,7.94,1.16,11.28-1.24,14.52-7.94,5.31-11,3-22.43,3.94-33.73,2-25,4.6-50,7.41-75,1.19-10.6,3.52-21.06,5.33-31.59,1.7,7,.74,14.45,3.23,20.47,3.14,7.58,8.84,14.2,14.11,20.7.9,1.1,5.61.27,7.73-1,4.48-2.72,8.41-6.34,12-9.18,12.06,10,10.63,20.66,3.82,33a344.25,344.25,0,0,0-20.35,44.3,110,110,0,0,0-6.61,31.47c-.29,4.57,3.91,11.05,8,13.89,5.19,3.61,10.65-.29,15.11-4.55,6.09-5.83,12.6-11.23,20.1-17.85,1,1.58,1.93,3,2.82,4.49,3.66,6,6.24,13.13,11.17,17.75a284.62,284.62,0,0,0,31.27,24.77c4.12,2.89,9,3.5,14.75-.3,8.74-5.8,11.07-14.27,12.82-23,4.65-23.31,5.41-47.27,16.2-69.45,7.3-15,11.61-31.46,16.63-47.47,2-6.53,2.41-13.58,3.48-20,3.16-.72,8.14-2,13.17-3,2.07-.39,4.78-1,6.31-.06,13.82,8.47,28.75,7.75,44.27,6.37v.05a4.48,4.48,0,0,1,.86-.88,2.44,2.44,0,0,1,.14-.28,61.78,61.78,0,0,0,1.6-11.38A5.52,5.52,0,0,1,2095.62,407.1Zm-284,70.95c1.67,12.4,3.11,23.08,4.61,34.24C1806.78,509.36,1804.91,495.18,1811.59,478.05Zm85.82-83.79c-2.73,5-6,5.71-10.22,2.23a51.76,51.76,0,0,1-17.9-28.38c-1.51-6.32,1.64-8.86,7.69-9.33,13.25-1,26.47-2.29,42.3-3.69C1911.22,369.48,1904.18,381.8,1897.41,394.26Zm79.8,64.5c-6,18.68-11.56,37.5-17.3,56.26q-2.19,7.22-4.37,14.43l-3.09,1.24L1926,506.81c6.42-16.43,12.19-32.28,18.88-47.74A56.69,56.69,0,0,1,1956,443c1.73-1.81,6.4-1.35,9.63-1,2,.23,3.77,2.56,5.87,3.33C1978.32,447.86,1979.3,452.24,1977.21,458.76Zm21.61-52.07c-8.61-2.72-16.72-3.53-24.81.73-5,2.62-8.55,1.5-11.73-2.94-1.48-2.06-3.6-3.67-5.48-5.43-3.8-3.52-6.6-3.49-9.14,1.73-7.77,16-23,21-38.51,25.41-1.49.43-3.22.06-5.25.06,8.51-13.29,16.67-25.9,24.69-38.6,3.35-5.3,7-10.55,9.46-16.27,3.43-7.93,9-10.52,17-8.82,7.48,1.6,15.27,2.67,22.23,5.62,19.93,8.43,39.51,17.7,59.22,26.66,2,.93,4.08,1.93,7.28,3.46C2029.59,410.45,2014.54,411.67,1998.82,406.69Z" transform="translate(-59.79 -132.99)"/><path d="M679.33,773.7c-18.53-11.82-18.68-28.7-19-45-1-44.38-1.41-88.79-2-133.18,0-1.38,0-2.77,0-3.89l-29.81-4.83c-1.69-.27-4.1.09-5-.9-6.44-7.37-13.66-14.39-18.5-22.76-4.59-7.95-8.9-17.8-3.23-26.75,5.07-8,12.32-14.63,18.79-21.71,7.57-8.29,15.34-16.39,22-25.56q-24.85,9.5-49.71,19c-17.19,6.6-34.33,13.32-51.55,19.84-10.55,4-20.58,3-30.34-3-11.86-7.33-12.53-18.7-9.38-29.33.89-3,6.73-5.5,10.65-6.19,1.84-.33,4.82,4,6.74,6.57,1.29,1.74,1.61,4.18,2.75,7.44,11.25-5.26,22.83-7.87,33.87-14C580,475.87,605.8,465,631,452.91c9-4.3,17.9-8.86,27-13.07,4.1-1.91,6-4.4,5.77-9.21-.4-10.25-.12-20.52-.12-33.22-3.66,3.18-5.73,5-7.86,6.82-10.13,8.52-18.91,18-23.79,30.68-.76,2-4.51,4.43-6.4,4.08-6-1.12-12.63-2.26-17.49-5.6-7.46-5.12-13.84-11.89-20.3-18.35-3.54-3.54-4.42-7.64-.55-12.2a9.46,9.46,0,0,0,1.51-7.55c-4.25-14.66,1.35-26.23,11-36.53,16.51-17.7,33.2-35.24,49.81-52.85l-1.87-3.29c-2.49.73-5.26,1-7.42,2.27-9,5.36-17.61,11.35-26.73,16.47-4.94,2.78-17.07-3.42-19.84-11.16a209.6,209.6,0,0,1-8.34-32.75c-.62-3.4,1.06-8.32,3.43-11,15.14-17.13,29.49-35.28,46.55-50.32,22.89-20.18,48-37.85,72.14-56.6,1.81-1.4,4-2.55,5.32-4.3,2.49-3.25,4.51-6.86,6.73-10.32-3.51-1.25-7-2.46-10.53-3.77a14,14,0,0,1-7-5c4.11-1.11,8.24-3.26,12.31-3.15,18.91.55,35.38,6,44.92,24.29,4.78,9.17,3.36,16.87-4.5,23.72-7.1,6.19-14.54,12.12-20.82,19.09s-11.28,15.06-18.34,21.47c7-3,13.44-.17,19.06,7.31,3.51,4.67,10.35,6.72,15.27,10.5,8.7,6.67,8.7,23.23-.94,28.11-14.5,7.35-21.88,21.35-33.09,31.59s-13.35,22.31-12.81,37.5c8.94-2.74,17.92-4.67,26-8.47,2.44-1.15,2.53-7.46,3.52-11.45,1.39-5.56,2.61-11.16,3.9-16.74,5.44,1.89,11.08,3.34,16.27,5.77,7.44,3.48,14.66,7.5,21.79,11.6,14.15,8.14,20.23,26.45,9.58,39.63-8.83,10.92-17.73,21.78-27.14,32.18-1.95,2.16-6.26,2.18-8.57,2.9-4.56,4.72-8.38,9.65-13.15,13.35s-10.32,6-14.72,10.63c11.58-2.23,23.06-5.27,34.74-6.48a420.22,420.22,0,0,1,48.09-2.55c15.42.17,30.72,15.55,32,30.83.21,2.45-1.87,7-3.61,7.39-15.73,3.51-31.63,6.27-47.46,9.35-3.59.7-7.06,2.2-10.66,2.66-4.58.59-9.24.45-13.87.71a10.31,10.31,0,0,0-4.15.71c-15.93,8.5-31.92,16.93-47.57,25.93-2.19,1.26-2.66,5.49-4.11,8.76,12.32,1.14,23.09,3.05,33.84,2.93,22.09-.26,38.37,10.79,53.33,25.13.83.79,1.72,1.51,2.6,2.24,4.1,3.43,10.34,6.75,7,12.85-2.09,3.86-7.36,7-11.85,8.34a206.52,206.52,0,0,1-28.2,5.7c-18,2.66-36.06,4.77-54.06,7.42a7.76,7.76,0,0,0-5.11,4.14,30.6,30.6,0,0,0-1.7,10.1c-.69,25.19-.78,50.4-1.91,75.57-1.24,27.65-2.26,55.4-5.61,82.84C690.52,744.9,684,758.67,679.33,773.7Z" transform="translate(-59.79 -132.99)"/><path d="M1563.38,462.57c-10.39,6.25-20.64,12.75-31.21,18.66a85.59,85.59,0,0,1-17.86,7.75c-8.19,2.36-20.11-4-23.57-11.6s.57-12.61,8.45-14.7c9.76-2.59,19.2-7,28.25-11.62,18.25-9.36,36.14-19.41,54.17-29.21,1.43-.77,2.7-1.84,5.24-3.6-2.75-1.37-4.49-2.89-6.36-3.07-22.08-2.07-35.76-27.38-26.46-45.59,3.17-6.2,2-9.32-3-13.59a26,26,0,0,1-7.73-12.73c-1.57-6.25.36-10.12,8.66-11.73,12.14-2.35,23.69-7.77,35.4-12.12,1.31-.48,2.94-2.53,2.9-3.8-.41-11.26-1.16-22.52-1.91-35.46-11.9,5.22-22.68,9.44-33,14.58-15.25,7.62-29.9,16.5-45.33,23.71-13.65,6.37-28.25,8.52-41.72-.57-11.16-7.52-21.45-24.87-10.72-40.48,5.27,5.74,11.33,10.67,15.14,17,4,6.53,8.72,7.89,15,6.07,14.72-4.26,29.45-8.52,44-13.42,17.27-5.82,34.26-12.47,51.48-18.42,5.25-1.81,7.86-4.15,7.68-10.27-.44-14.52-.07-29.06,0-43.59,0-5.46.39-10.42,8.09-10.2,7,.2,13,2.38,11.7,10.05-2.32,13.73,4.11,24.6,9,36.28,2.36,5.68,4.57,7.13,11.29,6.34,15.28-1.78,30.89-.64,46.18-2.36,11.56-1.3,21.15,3.11,30.91,7.21,6.07,2.54,12.64,5.76,12,14.74-.63,8.24-8.17,8.18-12.85,10.66-7.89,4.18-16.76,6.47-25.17,9.67-13.58,5.18-27.23,9.37-42.08,5.94-1.83-.43-4.11,1.05-6.18,1.64.66,2,.82,4.39,2.07,5.85,3,3.45,6,7.09,9.77,9.52,12.22,7.91,11.31,27.42-1.67,36.21a33.76,33.76,0,0,0-5.21,4.42c-2.3,2.36-6.68,6.41-6.2,7.14,2.64,4,6,8,10,10.56,10,6.38,20.46,11.87,30.61,17.95,7.74,4.64,10.37,12.69,10,20.71-.46,9.83-1.87,20-5.09,29.24-4.1,11.78-10.78,22.63-15.6,34.2a21.66,21.66,0,0,0-.8,12.75c2.6,10.46,1.19,12.51-8.49,17.54-11.43,5.94-23.12,9.09-35.84,8.42-.86,11.08-.79,22.33-2.78,33.21-4.51,24.79-21.18,43.59-46.91,48.1-21.22,3.72-42.33,8.19-63.62,11.43-8.16,1.25-16.74.54-25-.27-5.27-.52-8.78-3.73-5.2-9.3-10-8.21-18.25-16.35-21-29.64-2.19-10.74-7.8-20.74-11.49-31.22-1-2.87-.55-6.27,1-9.69,7.46,12.94,14.6,26.07,22.44,38.77,10.45,16.94,23.75,30.78,45.44,30.21a109,109,0,0,0,32.64-5.59c18.78-6.57,35.5-17.12,48-33.1,6.24-8,7.46-27.91,3.51-36.26-14.23,2.39-28.06,5.14-42,6.93-13.06,1.67-21.26-8.48-19.34-22.25,1.74-12.43,10.66-20.5,17.4-29.84,4.29-6,9.7-11.12,14.61-16.63Zm74.27-59.36c-1.22,13.88,5.67,37.65,13.35,43.45,2.83-6.38,6.47-12.25,8.09-18.63C1663.22,411.68,1656,399.75,1637.65,403.21Zm33.72-133.08-1.3-4.12c-12,.78-24,1.32-35.87,2.57-2.15.23-5.82,3.64-5.64,5.21.72,6.29,2.66,12.44,4.29,18.6a3.13,3.13,0,0,0,2.41.08C1647.33,285.08,1659.35,277.6,1671.37,270.13Zm-60.83,42.05c4.72-6.26,12.28-9.49,9.38-18.41-2.17-6.65-3.84-13.46-5.73-20.2l-3.65.62Zm4.12,167.59,3,2.52c2.85-2.59,8-5.07,8.14-7.79.44-9.17-.92-18.42-1.7-29.18C1614.09,456.28,1616.66,468.58,1614.66,479.77ZM1592.42,483c-6.38,4.36-11.12,7.33-15.47,10.81-.84.67-.1,3.3-.09,5,5.19-1.16,10.89-1.43,15.3-4C1593.8,493.88,1592.42,487.66,1592.42,483Zm29.87-73.22-3.08-1.47c-1.48,2.2-4.62,4.95-4.1,6.47,1.11,3.24,4.1,5.84,6.32,8.71l2.22-1.4Q1623,415.88,1622.29,409.73Z" transform="translate(-59.79 -132.99)"/><path d="M1328.6,316.05c-5.48-1-10.09-1.06-14.07-2.69-9.33-3.79-19.15-6.72-24.42-17-3.87-7.58-3.65-13.13,3.66-17.11,10.25-5.59,20.55-11.2,31.27-15.78,5.58-2.38,8.85-5.22,9.38-11.28.46-5.4,1.7-10.75,1.82-16.14.18-7.67,4-9,10.68-7.89,10.83,1.87,18.79,7.27,21.57,18.05,1.51,5.86,4.49,6.73,9.72,6.65,12.66-.21,25,1.34,36.53,7.41,10.2,5.4,19,19.61,16.83,30.51-1.33,6.76-4.89,13.28-8.39,19.37-5.15,8.94-11.07,17.45-16.78,26.07-5.48,8.27-11.11,16.45-15.57,23,1,6.34,1.8,11.44,2.62,16.53.71,4.38.66,9.07,2.32,13.06,4.82,11.54,9.45,23.32,15.81,34,5.77,9.69,13.29,18.46,20.82,26.93,8.3,9.33,6.9,16.9-4.06,23-17.43,9.62-36.66,12.29-55.74,15.22-9,1.38-11.78,6.24-12.51,14-1.74,18.46-3,37-5.44,55.35-1.27,9.42-4.57,18.61-7.47,27.74-.62,1.94-3.75,4.64-5.26,4.37-2.19-.38-5.36-2.92-5.69-4.93-2.67-16.25-5.59-32.53-6.74-48.91-.78-11.24,1.16-22.66,2-36.43-9.56,3.91-18.71,7.6-27.81,11.38-7.36,3-14.51,6.79-22.1,9.08-3.83,1.16-11.47,1-12.09-.65-1.77-4.57-1.4-10.28-.78-15.41,1.3-10.65,11.43-14.49,17.65-21.34,9.62-10.61,9.7-10.54,2.92-23s-4.49-22.2,5.46-33.44c4-4.53,8.71-10.23,4.34-18.77-3.23-6.31-2.15-14.71-3.79-22-.8-3.6-3-7.11-5.3-10.11-6.32-8.29-12.12-16.51-10.76-27.88.59-4.93,2.34-6.7,7.24-8.66,13.93-5.59,27.26-12.66,40.73-19.36C1328.28,318.46,1328.5,316.28,1328.6,316.05Zm60.58,121.89-26.27,24.4c.46.75.92,1.5,1.37,2.26l36.55-5.24C1396.51,451.43,1393,445.05,1389.18,437.94ZM1395.72,280c-19.09-4-29.34,2.74-26,15.21,5.57-.4,12,.81,16.35-1.65S1392.33,285,1395.72,280Z" transform="translate(-59.79 -132.99)"/><path d="M978.73,569.23,1070,504.4c-26.42-19.95-20-43.94-5.75-69.28-42.52-9.8-41-40.37-35.78-73.77-13.9,8-26.14,16.09-39.3,22.28-25,11.74-36,33.63-45,57.59-8,21.22-16.72,42.19-25.26,63.21-3.75,9.25-13.66,11.59-21.47,5.1-16.47-13.7-24.06-32-27.59-52.62-4.76-27.77.44-54.53,7.27-81.22,1.19-4.63,1.37-9.51,2.11-14.26.06-.34.9-.54,2.38-1.36a63.47,63.47,0,0,1,1.7,7.25c3,26,5.24,52.16,9.21,78,1.61,10.45,7,20.33,10.6,30.47l3.28-.31c7.36-13.44,15.45-26.54,21.92-40.39,13.43-28.72,34.15-50.17,61.19-66.31,13.72-8.19,26.55-17.85,39.82-26.8,5.86-3.95,8.13-9.48,9.31-16.41,4.09-23.83,8.91-47.54,13.36-71.31,1.09-5.83,4.07-9.13,10.25-9.55,5.71-.39,6.64,3.35,9.4,7.34,4.72,6.79,11.68,12.52,18.75,17s15.29,6.83,23,10.13c3.49,1.48,9,1.77,7.37,7.33-.92,3.16-4,6-6.7,8.26-3.18,2.73-7.2,4.47-10.45,7.12-11.28,9.2-22.21,18.84-33.63,27.85-5.46,4.3-9.11,8.79-9.78,16.13-1.13,12.18-3.63,24.24-4.84,36.42a85.48,85.48,0,0,0,.73,19.3c.24,1.86,3.17,4.36,5.22,4.78,5.26,1.08,10.75.95,16.1,1.66,7.43,1,15.24,1.18,22.14,3.74,11,4.08,12.12,12.27,3.55,20.48-7.41,7.12-15.62,13.41-22.93,20.62-13.29,13.12-12.34,17.48,4.59,24.55,7.38,3.08,14.53,5.1,23,2.82,7.75-2.08,15.4-.64,18.43,9.1.76,2.44,3.1,4.58,5.11,6.41,5.79,5.3,6,14.53-.44,19-11.86,8.29-23.62,16.25-38.44,19.65-13.14,3-25.36,9.88-38.23,14.34-18.31,6.34-36.83,12.06-55.28,18-6.13,2-12.31,3.78-18.47,5.66Zm94.58-306.63c-10.33,10.67-17,44.43-11.78,55.2,7.24-5.72,14.5-11.12,21.3-17.05,1.85-1.62,3.84-5.37,3.18-7.21C1082.35,283.37,1077.88,273.49,1073.31,262.6Z" transform="translate(-59.79 -132.99)"/><path d="M1188.68,464.21c-5.48,5.12-7.38,13-16.27,9.5-2-.77-4.7-2.09-5.18-3.72-3.15-10.62-7-21.38-1-32.3q11.16-20.2,22.35-40.39c1.18-2.14,2.28-4.32,3.62-6.88-9.32,0-19.77-12.32-19.15-24.33.48-9.41,2.05-20,6.86-27.71,12.37-19.92,26.75-38.59,40.46-57.65,2.72-3.78,5.49-8.05,9.29-10.36,2.84-1.74,8.12-2.09,11-.57,4.37,2.33,9,6.18,10.94,10.53,2.37,5.27,4.14,12.39,2.48,17.52-2.95,9.13-6.45,19-17.16,23-1.13.41-1.81,2-3.33,3.85,5.49,1.89,10.34,3.57,15.2,5.21,9.82,3.3,12.78,7.67,11.33,18.14-1.8,13-6.19,24.9-15.26,34.76q-7.53,8.19-14.8,16.63c-.94,1.1-1.85,2.95-1.6,4.24,3.53,18.52-2.53,36.2-4.84,54.16-2.37,18.47-5,36.54,4.08,54.33,3.23,6.34,3.27,14.26,5,21.4,1.94,8-3.68,11.37-9,13.94-5.84,2.8-9.33-2-12.74-6-12.62-14.77-17-32.62-19.38-51.26C1190.5,481.56,1189.64,472.88,1188.68,464.21Z" transform="translate(-59.79 -132.99)"/><path d="M123.22,351.8c12.17-8.57,22.93-15.31,32.74-23.23,24.48-19.78,50.84-36.35,81.46-44.09,23.6-6,47.66,4.07,61.87,24,4.82,6.76,3.52,15-1.46,21.8a295.14,295.14,0,0,1-19.48,24.47c-13.53,14.8-27.94,28.8-41.3,43.73-6,6.68-10.34,14.83-15.21,22,.5,1.18.6,2,.94,2.13,16,5.11,21.1,18.12,21.11,32.73,0,21.84-.64,43.82-3.24,65.48-2,16.49,6.46,44.21,20.72,51.33,6.25,3.12,15.6,3.35,22.49,1.33,45.13-13.23,91-24.88,130.52-52.19,1.4-1,2.91-1.79,4.28-2.79,14.39-10.41,16-16.91,9.68-33.52-20.69-54.61-34.25-111-42.4-168.8-.76-5.41.41-11.09.78-18.71,3,2.72,4.6,3.53,5.23,4.82,8,16.24,16.34,32.32,23.58,48.88,12.2,27.92,23.69,56.16,35.43,84.28,7,16.75,13.29,33.82,21,50.24,10.75,23,6.6,42.09-14.08,57.54-35.64,26.62-75.08,44-119.47,50.19-13.11,1.84-25.55,8-38.58,10.85-26.8,5.91-53.44-5.63-65.42-28.25-7.73-14.59-7.85-30.86-7.79-46.92,0-10.88,1.27-21.81.53-32.62a345.93,345.93,0,0,0-5.3-39.63c-1.5-8-9.67-9.65-14.63-3-6.61,8.84-12.26,18.4-18.31,27.65-.15.23-.1.63-.29.8-18.17,17.13-19,43-31.73,62.84-6.26,9.78-13.2,19.13-19.57,28.84-3.52,5.37-5.9,11.57-9.9,16.51-5.27,6.5-11,13.07-17.71,17.83-5.7,4-13.42,2.73-18.23-2.51-10.18-11.06-19.86-22.63-29-34.53-4.15-5.38-3.17-19.94,1.57-23.23,13.89-9.61,19.08-25.07,27.69-38.29,11.78-18.1,24.66-35.48,36.57-53.5,4-6.06,6.5-13.12,9.13-18.56-10.14-3.3-20.77-4.6-28.72-9.92C100,422,93.78,412.42,86.42,404.57c-14.4-15.37-16.58-30-3-45.92,7.43-8.68,19-14.44,29.57-19.6C119.43,335.92,122.08,342.45,123.22,351.8Z" transform="translate(-59.79 -132.99)"/><path d="M205.55,261.22c-3.35-2.21-7.44-3.72-9.35-6.65-1.07-1.64.8-6.1,2.49-8.49,7.09-10.1,2.92-23.11-9.92-29.86-13.69-7.2-20.11-21.82-16.79-36.6,1.29-5.77,4.72-8.05,9.66-7.41,16.1,2.08,32.76,2.72,48,7.68,14,4.55,26.46,13.84,39.43,21.33,3.92,2.27,7.07,5.86,11,8.18,8.7,5.2,9.36,14.12,2.43,21.66-10.71,11.63-24,15.7-39.19,16.35-7.28.31-14.23,1.43-20.42,7C218.76,258.12,212,258.84,205.55,261.22Z" transform="translate(-59.79 -132.99)"/><path d="M581.54,237.59C571,235,561.83,230.27,556,221.39c-8.42-12.7-10.26-27-7.24-41.87,1-4.78,2.74-10.43,8.95-9.54a23.17,23.17,0,0,1,11.83,6c2.94,2.78,4.57,7.16,6.17,11.08,2.13,5.19,4.94,5.94,10,3.59q31.36-14.64,63-28.61c3-1.34,6.73-1.11,10.12-1.61-1.24,3.48-1.48,8-3.89,10.24C646.94,178,637.48,183.66,630,191.3c-10.46,10.62-19.69,22.44-29.43,33.77C595.38,231.05,590.15,236.88,581.54,237.59Z" transform="translate(-59.79 -132.99)"/><path d="M905.34,307.46c7.79,1.61,14.39,2.51,17.37,9.8,3,7.44,2.16,14.6-3.7,20.55-3,3-5.88,6.39-9.48,8.43-6.42,3.63-11.43.28-12.24-7.1-.32-2.95-.89-6.42-2.68-8.55-4.45-5.32-5.89-11-1.38-16.16C896.14,311.12,901.23,309.72,905.34,307.46Z" transform="translate(-59.79 -132.99)"/><path d="M2427.38,390.27c-2.46-7.38-21.07-18.24-29-16.86-21,3.64-42.07,7.37-63.13,10.93-2.72.45-5.58.06-8.84.06,2.63-14.42,5-27,7.2-39.61,3.92-22.5-12.06-36.32-33.11-27.6-13.64,5.64-26.29,13.68-39.31,20.77-3.61,2-7,4.35-11.56,7.24.08-10-5.55-13.55-12.39-14.54-7.27-1.06-14.76-.67-22.15-.8s-9.19,4.92-10.44,10.93a18.2,18.2,0,0,1-3.85,7.64q-25.8,30.33-51.87,60.42c-3.15,3.65-6.61,7-9.92,10.53l-2.61-1.24c4.31-21.31,8.54-42.64,13-63.92a17.46,17.46,0,0,0-11.23-19.94c-8.32-3-10.29,4.29-12.91,9.23-5.12,9.62-9.77,19.48-14.55,29.3a5.45,5.45,0,0,1-.76,2.82v0c-1.18,5-2.29,10.11-3.58,15.12a11,11,0,0,1-.08,2.84c-5.71,29.26-3.47,58.21,4.35,86.69,2.14,7.8,6.54,15.17,10.9,22.1,3.65,5.81,19.65,8.18,24,3.27,10.77-12.22,25.31-23.14,19.35-41.46,3.73-1.89,6.66-3,9.14-4.7,10.18-7.08,11.88-6.43,19.94,2.63,6.45,7.26,13.21,17.37,24.69,13.14a25.21,25.21,0,0,0,16.6-21.09c2.32-19,4.45-38,7.26-56.91,1.3-8.76-.63-18.54,6.5-25.83,11.21-11.44,22.07-23.29,34-33.94,5.28-4.72,12.8-6.92,19.31-10.27l2.25,2.57c-2.66,9.51-5.6,18.94-7.9,28.53-4.5,18.72-8.23,37.62-.08,56.29,5.27,12.08,24.88,26.4,40.2,14.39,2.52-2,5.86-2.9,9.65-4.7a60.59,60.59,0,0,1,.84,6.93c-.27,19.44-.46,38.89-1,58.32-.31,11.16-4.22,20.45-14.4,26.67-12.58,7.69-24.39,16.69-37.25,23.83-12.63,7-25.24,14.94-40.71,14.57-1.53,0-3.1,1.64-5.37,2.92,1.88,1.21,2.72,2.09,3.72,2.34,20.11,5,40.24,4.19,60.28-.24,3.22-.71,6.34-4.29,9.15-3.92,13,1.72,23.67-4.3,34.82-9.08,16.5-7.08,28.45-28.68,24.2-46.27-5.53-23-11.76-45.76-18.44-68.41-2.44-8.26-.47-13.19,7-16.6,11.24-5.16,21.88-12.2,35.33-9.69a31,31,0,0,0,11.13-.44C2423.87,403.72,2429.41,396.36,2427.38,390.27Z" transform="translate(-59.79 -132.99)"/><path d="M2430.65,264.2a25.06,25.06,0,0,0-1.78,4.72c-2,12-3.95,13.22-15.68,9.13-7.7-2.69-15.09-6.47-23-8.36-6.18-1.49-13.2.33-19.29-1.34-18.29-5-36.65-2.05-54.61,0-7.11.82-14.59,4.35-22.42,4.86-6.25.42-12.45,1.45-21.19,2.52l12.36-13.61c-4.83-3.74-9.18-8.56-14-.57a4.24,4.24,0,0,1-3.92,1.13c-10.52-4.52-18.4,4.57-28.08,5.4-10.8.93-21.16,7.35-31.93,8.06-10.47.69-18.38,7.37-28.42,8.42a39.13,39.13,0,0,0-15.73,5.83c-11.76,7.21-23.93,6.86-37,4.92-17.64-2.63-35-5.34-50-16-1.12-.79-2.13-1.73-5.24-4.3,11.59-5.15,21.57-10.33,32-14.11,33.5-12.08,66.82-24.9,100.91-35.07,41.39-12.35,84-15.41,127.09-10.33,2.19.26,4.79.3,6.65-.64,9.15-4.66,18.06-3.06,27.4-.49,19,5.25,38.59,9.35,53.1,24.17,3.79,3.87,6.36,9,9.15,13.74,1.53,2.6,2.36,5.62,3.5,8.46Z" transform="translate(-59.79 -132.99)"/></svg>