<?xml version="1.0" encoding="utf-8"?>
<!-- Generator: Adobe Illustrator 14.0.0, SVG Export Plug-In . SVG Version: 6.00 Build 43363)  -->
<!DOCTYPE svg PUBLIC "-//W3C//DTD SVG 1.1//EN" "http://www.w3.org/Graphics/SVG/1.1/DTD/svg11.dtd">
<svg version="1.1" id="圖層_1" xmlns="http://www.w3.org/2000/svg" xmlns:xlink="http://www.w3.org/1999/xlink" x="0px" y="0px"
	 width="2446.28px" height="900px" viewBox="0 0 2446.28 900" enable-background="new 0 0 2446.28 900" xml:space="preserve">
<g>
	<defs>
		<rect id="SVGID_1_" width="2446.278" height="900"/>
	</defs>
	<clipPath id="SVGID_2_">
		<use xlink:href="#SVGID_1_"  overflow="visible"/>
	</clipPath>
	<g id="XMLID_3_" clip-path="url(#SVGID_2_)">
		<g>
			<path fill="#FFFFFF" d="M835.34,437.77c0.21,2.45-1.87,7.01-3.61,7.39c-15.73,3.51-31.63,6.27-47.46,9.35
				c-3.59,0.7-7.06,2.2-10.67,2.66c-4.57,0.59-9.24,0.45-13.86,0.71c-1.4,0.08-2.98,0.08-4.15,0.71
				c-15.94,8.5-31.92,16.93-47.57,25.93c-2.19,1.261-2.66,5.49-4.11,8.761c12.32,1.14,23.09,3.05,33.84,2.93
				c22.09-0.26,38.36,10.79,53.33,25.13c0.82,0.79,1.72,1.51,2.6,2.24c4.1,3.43,10.34,6.75,7.02,12.85
				c-2.09,3.86-7.36,7.03-11.85,8.34c-9.17,2.7-18.71,4.301-28.2,5.7c-17.99,2.66-36.07,4.771-54.06,7.42
				c-1.92,0.28-4.4,2.33-5.11,4.141c-1.22,3.12-1.6,6.7-1.7,10.1c-0.68,25.19-0.78,50.4-1.91,75.57
				c-1.24,27.649-2.27,55.399-5.61,82.84c-1.74,14.36-8.26,28.13-12.93,43.16c-18.53-11.82-18.68-28.7-19.04-44.98
				c-1-44.38-1.41-88.79-2.05-133.18c-0.02-1.38,0-2.771,0-3.89c-10.35-1.681-20.08-3.261-29.81-4.83c-1.69-0.28-4.1,0.09-4.96-0.9
				c-6.44-7.37-13.66-14.39-18.5-22.76c-4.6-7.95-8.9-17.8-3.23-26.75c5.07-7.99,12.32-14.63,18.79-21.71
				c7.57-8.29,15.34-16.4,22.03-25.57c-16.57,6.34-33.15,12.65-49.71,19.01c-17.19,6.601-34.33,13.32-51.55,19.841
				c-10.55,4.01-20.58,2.989-30.34-3.04c-11.86-7.33-12.53-18.69-9.38-29.33c0.89-3,6.73-5.5,10.65-6.19
				c1.84-0.33,4.83,3.97,6.74,6.57c1.28,1.74,1.6,4.18,2.75,7.439c11.25-5.26,22.83-7.87,33.87-14.01
				c24.37-13.55,50.21-24.47,75.42-36.51c9.01-4.3,17.9-8.86,26.96-13.07c4.1-1.91,5.96-4.4,5.77-9.21
				c-0.4-10.25-0.12-20.52-0.12-33.22c-3.66,3.18-5.73,5.04-7.86,6.82c-10.14,8.52-18.91,17.99-23.79,30.68
				c-0.76,1.99-4.51,4.43-6.4,4.08c-6.02-1.12-12.63-2.26-17.49-5.6c-7.46-5.12-13.84-11.89-20.3-18.35
				c-3.54-3.54-4.42-7.64-0.55-12.2c1.48-1.75,2.16-5.31,1.51-7.55c-4.25-14.66,1.35-26.23,10.95-36.53
				c16.51-17.7,33.2-35.24,49.81-52.85c-0.63-1.1-1.25-2.19-1.87-3.29c-2.49,0.73-5.26,0.98-7.42,2.27
				c-8.98,5.36-17.61,11.35-26.73,16.47c-4.94,2.78-17.07-3.42-19.84-11.16c-3.79-10.57-6.3-21.68-8.34-32.75
				c-0.62-3.4,1.06-8.32,3.43-10.99c15.14-17.13,29.49-35.28,46.55-50.32c22.89-20.18,47.99-37.85,72.14-56.6
				c1.81-1.4,3.97-2.55,5.32-4.3c2.49-3.25,4.51-6.86,6.73-10.32c-3.51-1.25-7.04-2.46-10.53-3.77c-2.31-0.86-4.57-1.87-7.01-5.01
				c4.11-1.11,8.24-3.26,12.31-3.15c18.91,0.55,35.38,6.04,44.91,24.29c4.79,9.17,3.37,16.87-4.49,23.72
				c-7.1,6.19-14.54,12.13-20.82,19.09c-6.27,6.96-11.28,15.06-18.34,21.47c6.95-2.97,13.44-0.17,19.06,7.31
				c3.51,4.68,10.35,6.72,15.27,10.5c8.7,6.67,8.7,23.23-0.94,28.11c-14.5,7.35-21.88,21.35-33.09,31.59
				c-11.19,10.22-13.35,22.31-12.81,37.5c8.94-2.74,17.92-4.67,26.02-8.47c2.44-1.15,2.53-7.46,3.52-11.45
				c1.39-5.56,2.61-11.16,3.9-16.74c5.43,1.89,11.08,3.34,16.27,5.77c7.44,3.48,14.65,7.5,21.79,11.6
				c14.15,8.14,20.23,26.45,9.57,39.63c-8.82,10.92-17.72,21.78-27.13,32.18c-1.95,2.16-6.26,2.18-8.57,2.9
				c-4.55,4.72-8.38,9.65-13.16,13.35c-4.66,3.61-10.31,5.97-14.71,10.63c11.57-2.23,23.06-5.27,34.74-6.48
				c15.96-1.66,32.06-2.73,48.09-2.55C818.74,407.11,834.04,422.49,835.34,437.77z"/>
		</g>
		<g>
		</g>
	</g>
	<g id="XMLID_2_" clip-path="url(#SVGID_2_)">
		<g>
			<path fill="#FFFFFF" d="M471.94,485.71c10.75,22.96,6.6,42.09-14.08,57.54c-35.64,26.62-75.08,43.95-119.47,50.19
				c-13.11,1.84-25.55,7.97-38.58,10.85c-26.8,5.92-53.44-5.62-65.42-28.25c-7.73-14.59-7.85-30.86-7.79-46.92
				c0.03-10.88,1.27-21.811,0.52-32.62c-0.91-13.28-2.84-26.54-5.29-39.63c-1.5-7.99-9.67-9.65-14.63-3.01
				c-6.61,8.84-12.26,18.399-18.31,27.649c-0.15,0.24-0.1,0.63-0.29,0.8c-18.17,17.131-19.03,42.99-31.73,62.841
				c-6.26,9.779-13.2,19.13-19.57,28.84c-3.52,5.37-5.9,11.569-9.9,16.51c-5.27,6.5-10.95,13.07-17.71,17.83
				c-5.7,4.01-13.42,2.729-18.24-2.51c-10.17-11.061-19.85-22.63-29.04-34.53c-4.15-5.38-3.17-19.94,1.57-23.23
				c13.89-9.609,19.08-25.069,27.69-38.29c11.78-18.1,24.66-35.479,36.57-53.5c4-6.06,6.5-13.12,9.13-18.56
				c-10.14-3.3-20.77-4.6-28.72-9.92c-8.7-5.81-14.87-15.37-22.23-23.22c-14.4-15.37-16.58-30.04-3-45.92
				c7.43-8.68,18.95-14.44,29.57-19.6c6.44-3.13,9.09,3.4,10.23,12.75c12.16-8.57,22.93-15.31,32.74-23.23
				c24.48-19.78,50.84-36.35,81.46-44.09c23.6-5.96,47.66,4.07,61.87,24.02c4.82,6.76,3.52,15.04-1.47,21.8
				c-6.17,8.4-12.45,16.79-19.47,24.47c-13.53,14.8-27.94,28.8-41.3,43.73c-5.99,6.69-10.34,14.83-15.21,22
				c0.5,1.18,0.6,2.03,0.94,2.13c16.03,5.11,21.1,18.12,21.11,32.73c0.02,21.84-0.64,43.819-3.24,65.47
				c-1.97,16.5,6.46,44.22,20.72,51.34c6.25,3.12,15.6,3.35,22.49,1.33c45.13-13.23,90.99-24.88,130.52-52.19
				c1.4-0.97,2.9-1.79,4.28-2.779c14.39-10.42,15.97-16.92,9.68-33.53c-20.69-54.61-34.25-111.05-42.4-168.8
				c-0.76-5.41,0.41-11.09,0.78-18.71c3.01,2.72,4.6,3.53,5.23,4.82c7.98,16.24,16.34,32.31,23.58,48.88
				c12.2,27.92,23.69,56.16,35.43,84.28C457.95,452.22,464.25,469.29,471.94,485.71z"/>
		</g>
		<g>
		</g>
	</g>
	<g id="XMLID_1_" clip-path="url(#SVGID_2_)">
		<g>
			<path fill="#FFFFFF" d="M280.02,209.4c8.7,5.2,9.36,14.12,2.43,21.66c-10.71,11.63-24.01,15.7-39.19,16.35
				c-7.28,0.31-14.23,1.43-20.42,7.02c-4.08,3.69-10.84,4.41-17.29,6.79c-3.35-2.21-7.44-3.72-9.35-6.65
				c-1.07-1.64,0.8-6.1,2.49-8.49c7.09-10.1,2.92-23.11-9.92-29.86c-13.69-7.2-20.11-21.82-16.8-36.6c1.3-5.77,4.73-8.05,9.67-7.41
				c16.1,2.08,32.76,2.72,47.98,7.68c13.99,4.55,26.46,13.84,39.43,21.33C272.97,203.49,276.12,207.08,280.02,209.4z"/>
		</g>
		<g>
		</g>
	</g>
	<path clip-path="url(#SVGID_2_)" fill="#FFFFFF" d="M581.537,237.592c-10.523-2.555-19.706-7.319-25.591-16.2
		c-8.415-12.698-10.256-27.042-7.24-41.876c0.971-4.776,2.739-10.427,8.951-9.539c4.203,0.6,8.714,3.084,11.837,6.044
		c2.936,2.782,4.561,7.159,6.168,11.078c2.13,5.191,4.939,5.94,9.982,3.587c20.904-9.756,41.917-19.282,63.017-28.609
		c3.018-1.334,6.727-1.107,10.115-1.602c-1.233,3.477-1.477,8.038-3.882,10.234c-7.95,7.265-17.414,12.952-24.933,20.588
		c-10.458,10.619-19.691,22.447-29.434,33.771C595.38,231.05,590.149,236.881,581.537,237.592"/>
	<g id="XMLID_4_" clip-path="url(#SVGID_2_)">
		<g>
			<path fill="#FFFFFF" d="M2430.65,260.76v3.44c-0.609,1.57-1.52,3.09-1.779,4.72c-1.98,11.96-3.95,13.22-15.681,9.13
				c-7.7-2.69-15.09-6.47-22.96-8.36c-6.18-1.49-13.2,0.33-19.29-1.34c-18.29-5.03-36.649-2.05-54.609,0.02
				c-7.11,0.82-14.591,4.35-22.421,4.86c-6.25,0.42-12.449,1.45-21.189,2.52c5.31-5.85,8.83-9.73,12.36-13.61
				c-4.83-3.74-9.171-8.56-13.99-0.57c-0.54,0.89-2.92,1.56-3.92,1.13c-10.521-4.52-18.4,4.57-28.08,5.4
				c-10.8,0.93-21.16,7.35-31.931,8.06c-10.47,0.69-18.38,7.37-28.43,8.42c-5.41,0.57-11.01,2.94-15.72,5.83
				c-11.75,7.21-23.93,6.86-36.95,4.92c-17.64-2.63-35.05-5.34-50.02-16c-1.12-0.79-2.131-1.73-5.24-4.3
				c11.59-5.15,21.57-10.33,32.05-14.11c33.5-12.08,66.82-24.9,100.91-35.07c41.39-12.35,84.03-15.41,127.09-10.33
				c2.18,0.26,4.79,0.3,6.65-0.64c9.14-4.66,18.06-3.06,27.399-0.49c19.05,5.25,38.58,9.35,53.101,24.17
				c3.79,3.87,6.359,8.99,9.149,13.74C2428.68,254.9,2429.51,257.92,2430.65,260.76z"/>
			<path fill="#FFFFFF" d="M2427.38,390.27c2.029,6.09-3.51,13.45-11.75,14.99c-3.63,0.69-7.561,1.11-11.13,0.44
				c-13.45-2.51-24.091,4.53-35.33,9.69c-7.431,3.41-9.4,8.34-6.96,16.6c6.68,22.649,12.899,45.45,18.439,68.41
				c4.25,17.59-7.7,39.189-24.2,46.27c-11.149,4.78-21.81,10.8-34.819,9.08c-2.811-0.37-5.931,3.21-9.15,3.92
				c-20.04,4.43-40.17,5.26-60.28,0.24c-1-0.25-1.84-1.13-3.72-2.33c2.271-1.29,3.84-2.97,5.37-2.93
				c15.47,0.369,28.08-7.57,40.71-14.57c12.87-7.14,24.67-16.14,37.25-23.83c10.18-6.22,14.09-15.51,14.4-26.67
				c0.55-19.43,0.739-38.87,1.01-58.32c0.02-1.88-0.44-3.76-0.84-6.93c-3.79,1.8-7.13,2.72-9.65,4.7
				c-15.32,12.01-34.93-2.31-40.2-14.39c-8.149-18.67-4.42-37.57,0.08-56.29c2.3-9.59,5.24-19.02,7.9-28.53
				c-0.75-0.86-1.5-1.71-2.25-2.57c-6.51,3.34-14.03,5.55-19.311,10.27c-11.93,10.65-22.79,22.5-34,33.94
				c-7.13,7.29-5.199,17.07-6.5,25.83c-2.81,18.91-4.939,37.93-7.26,56.91c-1.28,10.439-7.899,17.89-16.6,21.09
				c-11.48,4.229-18.24-5.88-24.69-13.14c-8.06-9.061-9.76-9.71-19.939-2.631c-2.48,1.73-5.41,2.811-9.141,4.7
				c5.96,18.32-8.58,29.24-19.35,41.46c-4.33,4.91-20.33,2.54-23.98-3.27c-4.359-6.93-8.76-14.3-10.899-22.09
				c-7.82-28.49-10.061-57.44-4.351-86.7c0.2-0.98,0.131-2,0.08-2.84c1.29-5.01,2.4-10.07,3.58-15.12c0-0.01,0-0.02,0-0.03
				c0.51-0.84,0.76-1.83,0.76-2.82c4.78-9.82,9.431-19.68,14.551-29.3c2.62-4.94,4.59-12.23,12.91-9.23
				c8.489,3.06,12.93,11.76,11.229,19.94c-4.44,21.28-8.67,42.61-12.979,63.92c0.869,0.41,1.739,0.83,2.609,1.24
				c3.311-3.5,6.771-6.88,9.92-10.53c17.351-20.08,34.67-40.2,51.87-60.42c1.8-2.13,3.28-4.93,3.851-7.64
				c1.25-6.01,3.06-11.06,10.439-10.93c7.39,0.13,14.88-0.26,22.15,0.8c6.84,0.99,12.47,4.55,12.39,14.54
				c4.58-2.89,7.95-5.28,11.56-7.25c13.021-7.08,25.671-15.12,39.311-20.76c21.05-8.72,37.03,5.1,33.11,27.6
				c-2.2,12.61-4.57,25.19-7.2,39.61c3.26,0,6.12,0.39,8.84-0.06c21.06-3.56,42.09-7.29,63.13-10.93
				C2406.31,372.03,2424.92,382.89,2427.38,390.27z"/>
			<path fill="#FFFFFF" d="M2095.621,407.1c0,0.28,0.02,0.54,0.06,0.81c-0.16,3.89-0.74,7.64-1.6,11.38
				c-0.051,0.09-0.101,0.18-0.141,0.28c-0.33,0.26-0.62,0.55-0.859,0.88c0-0.02,0-0.03,0-0.05c-15.521,1.38-30.45,2.1-44.271-6.37
				c-1.53-0.94-4.24-0.33-6.31,0.06c-5.03,0.96-10.011,2.23-13.17,2.95c-1.07,6.44-1.44,13.49-3.48,20.02
				c-5.02,16.01-9.33,32.49-16.63,47.47c-10.79,22.18-11.55,46.14-16.2,69.45c-1.75,8.76-4.08,17.229-12.82,23.029
				c-5.739,3.8-10.63,3.19-14.76,0.3c-10.87-7.64-21.58-15.699-31.26-24.77c-4.93-4.62-7.51-11.76-11.17-17.75
				c-0.89-1.46-1.82-2.91-2.82-4.49c-7.5,6.62-14.01,12.021-20.1,17.851c-4.46,4.26-9.92,8.159-15.11,4.55
				c-4.09-2.84-8.29-9.32-8-13.891c0.68-10.619,2.851-21.52,6.61-31.47c5.729-15.18,12.53-30.09,20.35-44.3
				c6.82-12.37,8.24-22.99-3.819-33.03c-3.641,2.84-7.57,6.46-12.04,9.18c-2.131,1.29-6.841,2.12-7.74,1.02
				c-5.26-6.5-10.97-13.12-14.11-20.7c-2.49-6.02-1.53-13.47-3.229-20.47c-1.811,10.53-4.141,20.99-5.33,31.59
				c-2.811,24.96-5.391,49.96-7.41,74.99c-0.91,11.3,1.37,22.74-3.94,33.729c-3.239,6.7-6.58,9.101-14.52,7.94
				c-13.21-1.93-26.79-1.271-40.061-2.95c-7.739-0.979-15.83-3.25-22.51-7.109c-3.92-2.271-6.649-8.521-7.729-13.461
				c-4.32-19.71-0.15-38.59,7.87-56.68c5.25-11.84,11.13-23.4,17.71-37.15c-10.69,7.91-19.32,14.73-28.41,20.89
				c-7.84,5.3-16.16,4.53-20.91-3.62c-5.76-9.91-11.7-20.88-12.97-31.92c-1.36-11.78,0.42-24.95,13.59-32.29
				c4.62-2.58,8.279-6.94,12.21-10.66c14.28-13.58,28.34-27.4,42.79-40.8c8.09-7.51,13.66-15.25,12.26-27.4
				c-0.99-8.64,0.99-17.6,1.26-26.43c0.07-2.19-0.63-5.51-2.149-6.48c-16.86-10.78-15.521-29.04-18.891-45.28
				c-1.029-4.96-1.06-10.15-1.189-15.25c-0.11-4.12,0.33-8.26,0.56-13.15c12.12,5.89,24.43,9.37,27.271,21.36
				c7.93,0.59,15.26-0.16,21.68,1.91c10.08,3.24,19.979,7.65,29.1,13c5.48,3.22,5.75,10.16,2.24,15.43
				c-4.189,6.29-10.17,11.42-14.22,17.78c-5.88,9.24-11.7,18.77-15.42,28.95c-1.13,3.09,3.67,11.06,7.55,12.81
				c13.93,6.28,18.2,17.84,20.54,31.21c0.439,2.5,1.35,4.91,2.31,8.29c16.49-8.2,33.641-3.81,50.48-3.95
				c6.79-0.06,10.82-2.42,13.979-8.65c7.271-14.35,15.391-28.26,24-43.87c-14.52,7.58-22.33,4.74-27.779-9.32
				c-1.69-4.37-2.61-9.77-1.7-14.26c2.57-12.74,4-26.05,12.83-36.67c0.72-0.87,1.5-1.85,1.77-2.91c1.92-7.63,5.82-10.96,13.61-6.73
				c6.49,3.53,8.15,11.83,3.86,18.59c-1.771,2.8-3.03,5.93-4.521,8.91c0.73,0.7,1.45,1.41,2.18,2.11
				c3.851-1.98,8.091-3.46,11.48-6.05c6.5-4.98,12.52-10.61,18.78-15.91c0.819-0.7,2.109-1.74,2.84-1.52
				c8.8,2.73,18.88,3.83,25.899,9.04c7.131,5.28,6.04,15.91,1.66,23.05c-6.77,11.02-15.59,20.78-23.479,31.12
				c-9.86,12.94-20.04,25.65-29.3,39.01c-4.641,6.7-7.54,14.62-11.9,23.31c4.47,0.83,7.939,1.36,11.36,2.14
				c35.239,8.08,70.64,15.59,105.6,24.72c10.27,2.68,21.31,7.46,25.74,19.33c0.87,2.36,1.279,4.89,1.91,7.4
				C2095.6,407.15,2095.61,407.13,2095.621,407.1z M2043.77,398.3c-3.21-1.53-5.229-2.53-7.28-3.46
				c-19.71-8.96-39.29-18.23-59.22-26.67c-6.96-2.94-14.75-4.01-22.229-5.61c-7.94-1.7-13.561,0.89-16.99,8.82
				c-2.47,5.72-6.11,10.97-9.46,16.27c-8.021,12.7-16.181,25.31-24.69,38.6c2.03,0,3.76,0.37,5.25-0.06
				c15.471-4.46,30.74-9.43,38.51-25.41c2.54-5.22,5.341-5.25,9.141-1.73c1.88,1.76,4,3.37,5.479,5.43
				c3.181,4.44,6.75,5.56,11.73,2.94c8.09-4.26,16.2-3.45,24.81-0.73C2014.541,411.67,2029.59,410.45,2043.77,398.3z
				 M1977.21,458.76c2.09-6.52,1.109-10.9-5.69-13.4c-2.1-0.77-3.82-3.1-5.87-3.33c-3.229-0.37-7.899-0.83-9.63,0.98
				c-4.46,4.68-8.6,10.16-11.149,16.061c-6.69,15.46-12.461,31.31-18.881,47.739c8.91,8.04,17.69,15.96,26.471,23.881
				c1.02-0.41,2.05-0.83,3.08-1.24c1.46-4.811,2.909-9.62,4.369-14.431C1965.65,496.26,1971.22,477.44,1977.21,458.76z
				 M1897.4,394.26c6.78-12.46,13.82-24.78,21.88-39.17c-15.83,1.4-29.05,2.67-42.3,3.69c-6.05,0.47-9.2,3.01-7.689,9.33
				c2.739,11.47,8.859,20.89,17.899,28.38C1891.39,399.96,1894.68,399.27,1897.4,394.26z M1816.2,512.29
				c-1.5-11.16-2.939-21.84-4.609-34.24C1804.91,495.18,1806.78,509.36,1816.2,512.29z"/>
			<path fill="#FFFFFF" d="M1708.05,262.06c6.07,2.54,12.64,5.76,11.95,14.74c-0.63,8.24-8.17,8.18-12.851,10.66
				c-7.89,4.18-16.76,6.47-25.17,9.67c-13.58,5.18-27.229,9.37-42.08,5.94c-1.83-0.43-4.109,1.05-6.18,1.64
				c0.66,1.98,0.82,4.39,2.07,5.85c2.949,3.45,6.02,7.09,9.77,9.52c12.22,7.91,11.311,27.42-1.67,36.21
				c-1.87,1.27-3.63,2.79-5.21,4.42c-2.3,2.36-6.68,6.41-6.2,7.14c2.641,4.01,5.98,7.99,10,10.56c9.95,6.38,20.46,11.87,30.61,17.95
				c7.74,4.64,10.37,12.69,10,20.71c-0.46,9.83-1.87,20-5.09,29.24c-4.101,11.78-10.78,22.63-15.601,34.2
				c-1.56,3.76-1.8,8.771-0.8,12.75c2.6,10.46,1.19,12.51-8.49,17.54c-11.43,5.94-23.12,9.09-35.84,8.42
				c-0.86,11.08-0.8,22.33-2.78,33.21c-4.52,24.79-21.18,43.59-46.899,48.101c-21.23,3.72-42.34,8.189-63.63,11.43
				c-8.16,1.25-16.74,0.54-25.04-0.27c-5.271-0.521-8.78-3.73-5.2-9.301c-10.04-8.21-18.25-16.35-20.96-29.64
				c-2.19-10.74-7.8-20.74-11.49-31.22c-1.01-2.87-0.55-6.271,1.01-9.69c7.46,12.94,14.601,26.07,22.44,38.771
				c10.45,16.939,23.75,30.77,45.439,30.21c10.961-0.29,22.341-1.99,32.641-5.59c18.77-6.57,35.5-17.12,48.01-33.101
				c6.25-7.96,7.46-27.91,3.51-36.26c-14.229,2.39-28.06,5.14-42.02,6.93c-13.061,1.67-21.26-8.479-19.34-22.25
				c1.739-12.43,10.66-20.5,17.399-29.84c4.29-5.96,9.7-11.12,14.61-16.63c-0.53-0.5-1.061-1.01-1.59-1.51
				c-10.391,6.25-20.641,12.75-31.21,18.66c-5.65,3.159-11.67,5.97-17.86,7.75c-8.189,2.359-20.11-4-23.57-11.601
				c-3.47-7.64,0.57-12.61,8.45-14.7c9.76-2.59,19.2-6.979,28.24-11.62c18.25-9.359,36.16-19.41,54.18-29.209
				c1.42-0.77,2.7-1.84,5.24-3.6c-2.75-1.37-4.49-2.89-6.36-3.07c-22.069-2.07-35.76-27.38-26.46-45.59
				c3.17-6.2,2.011-9.32-2.979-13.59c-3.63-3.1-6.55-8.07-7.73-12.73c-1.58-6.25,0.36-10.12,8.66-11.73
				c12.141-2.35,23.69-7.77,35.4-12.12c1.31-0.48,2.939-2.53,2.899-3.8c-0.409-11.26-1.159-22.52-1.909-35.46
				c-11.9,5.22-22.681,9.44-32.99,14.58c-15.25,7.62-29.9,16.5-45.33,23.71c-13.65,6.37-28.25,8.51-41.72-0.57
				c-11.16-7.52-21.45-24.87-10.721-40.48c5.261,5.74,11.33,10.67,15.141,16.97c3.949,6.53,8.72,7.89,15.029,6.07
				c14.721-4.26,29.45-8.52,43.96-13.42c17.271-5.82,34.261-12.47,51.48-18.42c5.25-1.81,7.86-4.15,7.68-10.27
				c-0.439-14.52-0.069-29.06,0-43.59c0.03-5.46,0.4-10.41,8.101-10.2c6.97,0.2,13,2.37,11.699,10.05
				c-2.319,13.73,4.11,24.6,8.971,36.28c2.359,5.68,4.569,7.13,11.29,6.34c15.279-1.78,30.89-0.64,46.18-2.36
				C1688.7,253.55,1698.28,257.96,1708.05,262.06z M1671.371,270.13c-0.431-1.37-0.87-2.75-1.301-4.12
				c-11.97,0.78-23.96,1.32-35.87,2.57c-2.149,0.23-5.819,3.64-5.64,5.21c0.72,6.29,2.66,12.44,4.29,18.6
				c0.06,0.24,1.81,0.45,2.41,0.08C1647.331,285.08,1659.35,277.6,1671.371,270.13z M1659.09,428.03
				c4.13-16.35-3.05-28.28-21.44-24.82c-1.22,13.87,5.67,37.65,13.34,43.45C1653.831,440.28,1657.47,434.41,1659.09,428.03z
				 M1625.76,474.5c0.439-9.17-0.92-18.42-1.7-29.18c-9.97,10.96-7.4,23.26-9.4,34.45c0.99,0.841,1.971,1.681,2.961,2.521
				C1620.47,479.7,1625.64,477.22,1625.76,474.5z M1623.65,422.04c-0.46-4.11-0.91-8.21-1.359-12.31
				c-1.03-0.49-2.061-0.98-3.08-1.47c-1.48,2.2-4.62,4.95-4.101,6.47c1.11,3.24,4.101,5.84,6.32,8.71
				C1622.17,422.97,1622.91,422.5,1623.65,422.04z M1610.541,312.18c4.72-6.26,12.279-9.49,9.38-18.41
				c-2.17-6.65-3.84-13.46-5.73-20.2c-1.22,0.21-2.439,0.42-3.649,0.62V312.18z M1592.16,494.83c1.65-0.95,0.271-7.16,0.271-11.88
				c-6.39,4.359-11.13,7.33-15.48,10.81c-0.84,0.67-0.1,3.3-0.09,5.03C1582.05,497.63,1587.75,497.36,1592.16,494.83z"/>
			<path fill="#FFFFFF" d="M1432.4,449.77c8.3,9.33,6.9,16.9-4.06,22.94c-17.431,9.63-36.66,12.3-55.74,15.23
				c-9.04,1.38-11.78,6.239-12.51,13.979c-1.74,18.46-2.96,36.99-5.44,55.35c-1.27,9.421-4.569,18.61-7.47,27.74
				c-0.62,1.94-3.75,4.641-5.26,4.37c-2.19-0.38-5.36-2.92-5.69-4.93c-2.67-16.24-5.59-32.53-6.74-48.91
				c-0.779-11.24,1.16-22.66,2.04-36.43c-9.56,3.909-18.71,7.6-27.81,11.38c-7.36,3.05-14.51,6.79-22.1,9.08
				c-3.83,1.16-11.471,0.97-12.091-0.65c-1.77-4.57-1.409-10.28-0.779-15.41c1.3-10.649,11.43-14.49,17.649-21.34
				c9.62-10.61,9.7-10.54,2.92-22.979c-6.83-12.561-4.489-22.2,5.46-33.44c4-4.53,8.71-10.23,4.341-18.77
				c-3.23-6.31-2.15-14.71-3.79-22c-0.801-3.6-3.011-7.11-5.301-10.11c-6.319-8.29-12.12-16.51-10.76-27.88
				c0.59-4.93,2.34-6.7,7.24-8.66c13.93-5.59,27.26-12.66,40.729-19.36c1.04-0.51,1.261-2.69,1.36-2.92
				c-5.479-0.98-10.09-1.06-14.07-2.69c-9.33-3.79-19.149-6.72-24.42-17.03c-3.87-7.58-3.649-13.13,3.66-17.11
				c10.25-5.59,20.55-11.2,31.271-15.78c5.58-2.38,8.85-5.22,9.38-11.28c0.46-5.4,1.7-10.75,1.819-16.14
				c0.181-7.67,3.98-9.04,10.681-7.89c10.83,1.87,18.79,7.27,21.569,18.05c1.511,5.86,4.49,6.73,9.721,6.65
				c12.66-0.21,25.05,1.34,36.529,7.41c10.2,5.4,18.98,19.61,16.83,30.51c-1.33,6.76-4.89,13.28-8.39,19.37
				c-5.15,8.94-11.07,17.45-16.78,26.07c-5.479,8.27-11.109,16.45-15.569,23.04c1,6.34,1.8,11.44,2.619,16.53
				c0.71,4.38,0.66,9.08,2.32,13.06c4.82,11.54,9.45,23.32,15.811,34.02C1417.35,432.53,1424.871,441.3,1432.4,449.77z
				 M1400.831,459.36c-4.32-7.931-7.79-14.311-11.65-21.42c-9.23,8.57-17.75,16.49-26.271,24.4c0.461,0.75,0.921,1.5,1.37,2.26
				C1376.05,462.91,1387.82,461.22,1400.831,459.36z M1386.02,293.55c4.22-2.38,6.311-8.53,9.7-13.56
				c-19.09-3.97-29.34,2.74-26.05,15.21C1375.24,294.8,1381.66,296.01,1386.02,293.55z"/>
			<path fill="#FFFFFF" d="M1248.831,329.9c9.819,3.3,12.779,7.67,11.329,18.14c-1.8,12.97-6.189,24.9-15.26,34.76
				c-5.02,5.46-9.97,10.99-14.8,16.63c-0.94,1.1-1.85,2.95-1.6,4.24c3.529,18.52-2.53,36.2-4.841,54.16
				c-2.37,18.47-4.99,36.54,4.08,54.33c3.23,6.34,3.271,14.26,5.011,21.399c1.939,7.95-3.681,11.37-9.04,13.94
				c-5.84,2.8-9.33-2.03-12.75-6.03c-12.61-14.77-17.04-32.63-19.38-51.26c-1.08-8.65-1.94-17.33-2.9-26
				c-5.48,5.12-7.38,12.96-16.27,9.5c-1.97-0.77-4.7-2.09-5.18-3.72c-3.15-10.62-6.99-21.38-0.95-32.3
				c7.44-13.47,14.91-26.92,22.35-40.39c1.18-2.14,2.28-4.32,3.62-6.88c-9.32,0-19.77-12.32-19.15-24.33
				c0.48-9.41,2.05-19.98,6.86-27.71c12.37-19.92,26.74-38.59,40.46-57.65c2.72-3.78,5.49-8.05,9.291-10.36
				c2.84-1.74,8.12-2.09,10.989-0.57c4.37,2.33,8.98,6.18,10.94,10.53c2.37,5.27,4.14,12.4,2.48,17.52
				c-2.95,9.13-6.45,19.05-17.16,22.99c-1.13,0.41-1.811,2.03-3.33,3.85C1239.121,326.58,1243.97,328.27,1248.831,329.9z"/>
			<path fill="#FFFFFF" d="M1131.26,495.8c5.8,5.3,5.99,14.53-0.43,19.01c-11.86,8.29-23.62,16.25-38.44,19.65
				c-13.14,3.01-25.36,9.88-38.23,14.34c-18.31,6.34-36.83,12.061-55.28,18c-6.13,1.97-12.31,3.78-18.47,5.66
				c-0.56-1.07-1.12-2.15-1.68-3.229c30.12-21.41,60.25-42.82,91.23-64.83c-26.42-19.95-20.03-43.94-5.75-69.28
				c-42.52-9.8-41.02-40.37-35.78-73.77c-13.9,7.96-26.14,16.09-39.3,22.28c-24.97,11.74-35.96,33.63-45.01,57.59
				c-8.02,21.22-16.72,42.19-25.26,63.209c-3.75,9.25-13.66,11.59-21.47,5.101c-16.47-13.7-24.06-32.021-27.59-52.62
				c-4.76-27.77,0.44-54.53,7.27-81.22c1.19-4.63,1.37-9.51,2.11-14.26c0.06-0.34,0.9-0.54,2.38-1.36c0.63,2.61,1.43,4.9,1.7,7.25
				c3.01,26.02,5.24,52.16,9.21,78.03c1.61,10.45,6.96,20.33,10.6,30.47c1.1-0.11,2.19-0.21,3.28-0.311
				c7.36-13.439,15.45-26.54,21.92-40.39c13.43-28.72,34.15-50.17,61.19-66.31c13.72-8.19,26.55-17.85,39.82-26.8
				c5.86-3.95,8.13-9.48,9.31-16.41c4.09-23.83,8.91-47.54,13.36-71.31c1.09-5.83,4.07-9.13,10.25-9.55
				c5.71-0.39,6.64,3.35,9.4,7.34c4.72,6.79,11.68,12.52,18.75,17.02c6.99,4.45,15.29,6.83,23.01,10.13
				c3.49,1.48,8.98,1.77,7.37,7.33c-0.92,3.16-4.02,5.96-6.7,8.26c-3.18,2.73-7.2,4.47-10.45,7.12
				c-11.28,9.2-22.21,18.84-33.63,27.85c-5.46,4.3-9.11,8.79-9.78,16.13c-1.13,12.18-3.63,24.24-4.84,36.42
				c-0.62,6.37-0.11,12.94,0.73,19.3c0.24,1.86,3.16,4.36,5.22,4.78c5.26,1.08,10.75,0.95,16.1,1.66
				c7.43,0.99,15.24,1.18,22.14,3.74c10.96,4.08,12.12,12.27,3.55,20.48c-7.41,7.11-15.62,13.41-22.93,20.62
				c-13.29,13.12-12.34,17.48,4.59,24.55c7.38,3.08,14.53,5.101,23,2.82c7.75-2.08,15.4-0.64,18.43,9.1
				C1126.92,491.83,1129.26,493.97,1131.26,495.8z M1082.83,300.75c1.85-1.62,3.84-5.37,3.18-7.21
				c-3.66-10.17-8.13-20.05-12.7-30.94c-10.33,10.67-17.05,44.43-11.78,55.2C1068.77,312.08,1076.03,306.67,1082.83,300.75z"/>
			<path fill="#FFFFFF" d="M922.71,317.26c3.04,7.44,2.16,14.6-3.7,20.55c-2.97,3.02-5.88,6.39-9.48,8.42
				c-6.42,3.64-11.43,0.29-12.24-7.09c-0.32-2.95-0.89-6.42-2.68-8.55c-4.45-5.32-5.89-11.04-1.38-16.16
				c2.91-3.31,8-4.71,12.11-6.97C913.13,309.07,919.73,309.97,922.71,317.26z"/>
		</g>
		<g>
		</g>
	</g>
</g>
</svg>
