<?xml version="1.0" encoding="iso-8859-1"?>
<!-- Generator: Adobe Illustrator 18.0.0, SVG Export Plug-In . SVG Version: 6.00 Build 0)  -->
<!DOCTYPE svg PUBLIC "-//W3C//DTD SVG 1.1//EN" "http://www.w3.org/Graphics/SVG/1.1/DTD/svg11.dtd">
<svg version="1.1" id="_x31_" xmlns="http://www.w3.org/2000/svg" xmlns:xlink="http://www.w3.org/1999/xlink" x="0px" y="0px"
	 viewBox="0 0 512 512" style="enable-background:new 0 0 512 512;" xml:space="preserve">
<g>
	<rect style="fill:#887C6D;" width="512" height="512"/>
	<path style="opacity:0.1;fill:#040000;" d="M512,326.554V512H222.925l-119.91-119.911V219.034l-0.358-0.205l0.358-0.204v-0.308
		l0.256,0.154l26.163-16.435v-77.62c0-5.324,4.762-9.625,10.548-9.625h160.256l2.56,2.56l20.275,20.275l59.853,59.853l13.312,13.313
		l9.626,9.625l0.256,0.256l3.277,3.277L512,326.554z"/>
	<g>
		<polygon style="fill:#C4C4C4;" points="409.037,218.829 406.118,220.672 403.712,222.157 382.925,235.264 377.19,238.848 
			307.149,282.777 303.309,285.184 282.931,297.984 281.856,298.649 280.73,299.367 279.091,300.391 263.577,310.118 
			262.144,311.091 261.99,311.142 261.837,311.245 256.051,314.88 255.846,314.983 251.085,312.013 250.214,311.449 
			250.061,311.347 243.456,307.2 232.602,300.391 231.373,299.622 228.762,297.984 208.384,285.184 204.544,282.777 
			142.592,243.866 135.27,239.309 129.433,235.622 103.014,219.034 102.656,218.829 103.014,218.624 103.27,218.471 
			129.433,202.036 135.27,198.349 172.544,174.951 176.333,172.544 196.71,159.744 200.499,157.389 252.16,124.928 259.533,124.928 
			306.381,154.368 343.091,177.408 377.19,198.809 381.082,201.267 382.925,202.445 396.237,210.791 408.781,218.676 		"/>
		<path style="fill:#5EB2B2;" d="M382.925,124.416v229.94c0,0.153,0,0.358-0.051,0.511c-0.102,2.407-1.229,4.506-2.918,6.144
			c-1.946,1.792-4.608,2.918-7.578,2.918H139.981c-2.97,0-5.632-1.126-7.578-2.918c-1.843-1.741-2.97-4.044-2.97-6.656v-229.94
			c0-5.324,4.762-9.625,10.548-9.625h232.397C378.214,114.791,382.925,119.091,382.925,124.416z"/>
		<g>
			<g>
				<rect x="169.012" y="159.766" style="fill:#86CCCA;" width="114.133" height="15.204"/>
				<rect x="169.012" y="157.365" style="fill:#52A6A3;" width="114.133" height="15.204"/>
			</g>
			<g>
				<rect x="169.012" y="243.389" style="fill:#86CCCA;" width="173.44" height="15.204"/>
				<rect x="169.012" y="240.988" style="fill:#52A6A3;" width="173.44" height="15.204"/>
			</g>
			<g>
				<rect x="169.012" y="285.201" style="fill:#86CCCA;" width="173.44" height="15.204"/>
				<rect x="169.012" y="282.8" style="fill:#52A6A3;" width="173.44" height="15.204"/>
			</g>
			<g>
				<rect x="169.012" y="201.578" style="fill:#86CCCA;" width="173.44" height="15.204"/>
				<rect x="169.012" y="199.177" style="fill:#52A6A3;" width="173.44" height="15.204"/>
			</g>
		</g>
		<polygon style="fill:#FFFFFF;" points="256.205,307.763 254.413,308.787 250.061,311.347 219.75,329.063 215.501,331.571 
			167.629,359.527 160.051,363.929 110.08,393.114 106.24,395.316 103.014,397.209 103.014,218.317 103.27,218.471 129.433,233.728 
			145.459,243.098 169.011,256.871 172.032,258.611 213.402,282.777 217.549,285.184 236.646,296.346 239.462,297.984 
			243.558,300.391 248.883,303.462 250.419,304.384 251.238,304.845 256.051,307.661 		"/>
		<polygon style="fill:#E3E2E2;" points="409.379,218.312 409.379,397.241 409.327,397.197 409.071,397.021 408.866,396.889 
			408.815,396.889 260.642,310.395 258.031,308.854 256.188,307.754 262.025,304.367 262.179,304.279 262.332,304.19 
			267.708,301.067 		"/>
		<circle style="opacity:0.68;fill:#EEF3CA;" cx="328.585" cy="159.766" r="22.877"/>
		<path style="fill:#757575;" d="M409.379,369.541v27.444h-0.307l-4.403,0.205h-285.44l-0.204-4.25
			c5.171-3.533,12.031-8.294,16.486-11.315l0.614-0.41l14.951-10.291l23.347-16.128l6.758-4.659l70.912-48.896l4.761-3.329
			c1.126-0.716,2.406-1.331,3.789-1.74c1.639-0.564,3.431-0.922,5.223-1.076c0.614-0.051,1.177-0.103,1.792-0.051
			c0.614-0.103,1.229-0.103,1.843-0.103c1.639-0.051,3.226,0.103,4.762,0.409c1.638,0.307,3.123,0.82,4.454,1.536l53.76,29.901
			l26.573,14.796l6.912,3.84l25.036,13.926l16.486,9.165c0.461,0.256,0.973,0.512,1.485,0.819
			C409.071,369.388,409.225,369.49,409.379,369.541z"/>
		<path style="fill:#EAEAEA;" d="M409.395,379.238v17.971H103.014v-17.971c5.376-3.276,12.441-7.731,17.05-10.496l0.614-0.409
			l11.725-7.322l3.687-2.253l24.115-14.95l6.963-4.353l62.925-39.065l1.28-0.768l2.611-1.638l2.662-1.639l3.687-2.304l4.915-3.073
			c2.56-1.536,5.888-2.304,9.165-2.355c0.614-0.051,1.177-0.051,1.792,0c0.614-0.051,1.229-0.051,1.843,0
			c1.434,0,2.816,0.154,4.147,0.461c1.843,0.358,3.533,1.024,4.966,1.894l7.117,4.404l1.536,0.973l2.663,1.639l2.253,1.383
			l1.638,1.024l37.069,23.04l25.805,16.025l6.707,4.199l24.371,15.104l3.635,2.253l12.39,7.731c0.461,0.256,0.922,0.512,1.434,0.819
			c3.277,2.099,7.475,4.71,11.418,7.116C406.63,377.6,408.064,378.471,409.395,379.238z"/>
		<path style="opacity:0.2;fill:#ABDBDF;" d="M382.925,124.416v2.56c0-5.324-4.71-9.625-10.547-9.625H139.981
			c-5.786,0-10.548,4.301-10.548,9.625v-2.56c0-5.324,4.762-9.625,10.548-9.625h232.397
			C378.214,114.791,382.925,119.091,382.925,124.416z"/>
	</g>
</g>
</svg>
